<?xml version="1.0" encoding="UTF-8"?>
<svg xmlns="http://www.w3.org/2000/svg" xmlns:xlink="http://www.w3.org/1999/xlink" width="20px" height="20px" viewBox="0 0 20 20" version="1.1">
<g id="surface1">
<path style=" stroke:none;fill-rule:nonzero;fill:rgb(43.921569%,74.901961%,16.862745%);fill-opacity:1;" d="M 15.757812 8.191406 C 15.757812 7.984375 15.691406 7.8125 15.558594 7.679688 L 14.542969 6.675781 C 14.402344 6.53125 14.234375 6.460938 14.039062 6.460938 C 13.847656 6.460938 13.679688 6.53125 13.539062 6.675781 L 8.984375 11.214844 L 6.460938 8.695312 C 6.320312 8.554688 6.152344 8.480469 5.960938 8.480469 C 5.765625 8.480469 5.597656 8.554688 5.457031 8.695312 L 4.441406 9.699219 C 4.308594 9.832031 4.242188 10.003906 4.242188 10.210938 C 4.242188 10.414062 4.308594 10.582031 4.441406 10.714844 L 8.480469 14.753906 C 8.625 14.894531 8.789062 14.964844 8.984375 14.964844 C 9.183594 14.964844 9.355469 14.894531 9.496094 14.753906 L 15.558594 8.695312 C 15.691406 8.558594 15.757812 8.394531 15.757812 8.191406 Z M 18.570312 10 C 18.570312 11.554688 18.1875 12.988281 17.421875 14.300781 C 16.65625 15.617188 15.617188 16.65625 14.300781 17.421875 C 12.988281 18.1875 11.554688 18.570312 10 18.570312 C 8.445312 18.570312 7.011719 18.1875 5.699219 17.421875 C 4.382812 16.65625 3.34375 15.617188 2.578125 14.300781 C 1.8125 12.988281 1.429688 11.554688 1.429688 10 C 1.429688 8.445312 1.8125 7.011719 2.578125 5.699219 C 3.34375 4.382812 4.382812 3.34375 5.699219 2.578125 C 7.011719 1.8125 8.445312 1.429688 10 1.429688 C 11.554688 1.429688 12.988281 1.8125 14.300781 2.578125 C 15.617188 3.34375 16.65625 4.382812 17.421875 5.699219 C 18.1875 7.011719 18.570312 8.445312 18.570312 10 Z M 18.570312 10 "/>
</g>
</svg>
