<?xml version="1.0" encoding="UTF-8"?>
<svg xmlns="http://www.w3.org/2000/svg" xmlns:xlink="http://www.w3.org/1999/xlink" width="20px" height="20px" viewBox="0 0 20 20" version="1.1">
<g id="surface1">
<path style=" stroke:none;fill-rule:nonzero;fill:rgb(86.666667%,27.45098%,27.45098%);fill-opacity:1;" d="M 14.253906 12.523438 C 14.253906 12.328125 14.179688 12.160156 14.039062 12.019531 L 12.019531 10 L 14.039062 7.980469 C 14.179688 7.839844 14.253906 7.671875 14.253906 7.476562 C 14.253906 7.277344 14.179688 7.105469 14.039062 6.964844 L 13.035156 5.960938 C 12.894531 5.820312 12.722656 5.746094 12.523438 5.746094 C 12.328125 5.746094 12.160156 5.820312 12.019531 5.960938 L 10 7.980469 L 7.980469 5.960938 C 7.839844 5.820312 7.671875 5.746094 7.476562 5.746094 C 7.277344 5.746094 7.105469 5.820312 6.964844 5.960938 L 5.960938 6.964844 C 5.820312 7.105469 5.746094 7.277344 5.746094 7.476562 C 5.746094 7.671875 5.820312 7.839844 5.960938 7.980469 L 7.980469 10 L 5.960938 12.019531 C 5.820312 12.160156 5.746094 12.328125 5.746094 12.523438 C 5.746094 12.722656 5.820312 12.894531 5.960938 13.035156 L 6.964844 14.039062 C 7.105469 14.179688 7.277344 14.253906 7.476562 14.253906 C 7.671875 14.253906 7.839844 14.179688 7.980469 14.039062 L 10 12.019531 L 12.019531 14.039062 C 12.160156 14.179688 12.328125 14.253906 12.523438 14.253906 C 12.722656 14.253906 12.894531 14.179688 13.035156 14.039062 L 14.039062 13.035156 C 14.179688 12.894531 14.253906 12.722656 14.253906 12.523438 Z M 18.570312 10 C 18.570312 11.554688 18.1875 12.988281 17.421875 14.300781 C 16.65625 15.617188 15.617188 16.65625 14.300781 17.421875 C 12.988281 18.1875 11.554688 18.570312 10 18.570312 C 8.445312 18.570312 7.011719 18.1875 5.699219 17.421875 C 4.382812 16.65625 3.34375 15.617188 2.578125 14.300781 C 1.8125 12.988281 1.429688 11.554688 1.429688 10 C 1.429688 8.445312 1.8125 7.011719 2.578125 5.699219 C 3.34375 4.382812 4.382812 3.34375 5.699219 2.578125 C 7.011719 1.8125 8.445312 1.429688 10 1.429688 C 11.554688 1.429688 12.988281 1.8125 14.300781 2.578125 C 15.617188 3.34375 16.65625 4.382812 17.421875 5.699219 C 18.1875 7.011719 18.570312 8.445312 18.570312 10 Z M 18.570312 10 "/>
</g>
</svg>
